# xmcd
#
# Track frame offsets:
# 150
# 14428
# 28148
# 39625
# 58535
# 69405
# 84958
# 98043
# 113573
# 134905
# 158348
# 181638
# 200638
# 214353
# 231308
#
# Disc length: 3357 seconds
#
#
# Revision: 1
# Processed by: cddbd v1.5.1PL2 Copyright (c) Steve Scherf et al.
# Submitted via: FreeRIP 2.942 
#
DISCID=c90d1b0f
DTITLE=Various Artist - Live in Paradiso - Disc 1
DYEAR=1992
DGENRE=Blues
TTITLE0=Ides of May - Don't boogie on me
TTITLE1=Ides of May - Slippin' and slidin'
TTITLE2=Ides of May - All my lovin' Baby
TTITLE3=Ides of May - You're out of sight
TTITLE4=Ides of May - Drivin' around
TTITLE5=Ides of May - Boxin' the blues
TTITLE6=Ides of May - I cried
TTITLE7=Ides of May - Let 'er roll
TTITLE8=Keith Dunnand John Packer - It ain't me
TTITLE9=Keith Dunnand John Packer - Tore up
TTITLE10=Keith Dunnand John Packer - Standing around crying
TTITLE11=Keith Dunnand John Packer - Pallet on the Floor
TTITLE12=Keith Dunnand John Packer - Tell me why
TTITLE13=Keith Dunnand John Packer - Rockin' and rolling
TTITLE14=Keith Dunnand John Packer - Rock this house
EXTD=
EXTT0=
EXTT1=
EXTT2=
EXTT3=
EXTT4=
EXTT5=
EXTT6=
EXTT7=
EXTT8=
EXTT9=
EXTT10=
EXTT11=
EXTT12=
EXTT13=
EXTT14=
PLAYORDER=
